<?xml version="1.0" standalone="no"?>
<!DOCTYPE svg PUBLIC "-//W3C//DTD SVG 20010904//EN"
 "http://www.w3.org/TR/2001/REC-SVG-20010904/DTD/svg10.dtd">
<svg version="1.0" xmlns="http://www.w3.org/2000/svg"
 width="700.000000pt" height="700.000000pt" viewBox="0 0 700.000000 700.000000"
 preserveAspectRatio="xMidYMid meet">
<metadata>
Created by potrace 1.14, written by Peter Selinger 2001-2017
</metadata>
<g transform="translate(0.000000,700.000000) scale(0.100000,-0.100000)"
fill="#000000" stroke="none">
<path d="M3279 6996 c-2 -2 -42 -7 -89 -10 -47 -4 -96 -8 -110 -10 -14 -2 -46
-7 -71 -10 -618 -85 -1223 -348 -1714 -746 -122 -98 -140 -115 -280 -255 -334
-334 -600 -739 -765 -1165 -29 -74 -56 -144 -61 -155 -21 -50 -86 -282 -103
-365 -3 -14 -8 -36 -11 -50 -15 -68 -44 -243 -50 -305 -4 -38 -10 -79 -12 -90
-13 -52 -10 -548 3 -680 143 -1424 1132 -2618 2497 -3014 101 -30 278 -72 357
-86 106 -19 236 -36 320 -42 125 -10 525 -10 620 0 172 18 162 17 275 36 496
83 970 274 1386 556 60 41 115 79 122 85 6 6 41 33 77 61 119 94 184 152 310
279 310 311 526 625 723 1050 119 257 240 701 272 995 4 33 9 71 11 85 3 14 7
140 9 280 3 226 -2 339 -19 475 -3 22 -8 58 -11 80 -21 172 -78 415 -145 615
-226 678 -647 1261 -1225 1697 -82 62 -253 175 -315 209 -19 10 -37 21 -40 24
-16 16 -248 130 -374 184 -222 95 -439 160 -741 222 -11 2 -38 6 -60 9 -22 3
-51 7 -65 10 -13 2 -54 7 -90 11 -36 3 -74 8 -85 11 -22 5 -541 14 -546 9z
m525 -170 c16 -2 59 -7 95 -11 92 -9 318 -51 431 -81 236 -61 445 -140 670
-253 808 -405 1414 -1119 1684 -1981 38 -123 100 -382 110 -465 4 -27 9 -57
11 -65 4 -18 15 -120 24 -245 13 -157 6 -448 -14 -605 -3 -19 -7 -55 -10 -80
-3 -25 -12 -83 -21 -130 -9 -47 -18 -96 -20 -110 -11 -62 -78 -299 -110 -392
-67 -192 -183 -445 -273 -593 -23 -37 -41 -69 -41 -70 0 -2 -30 -48 -67 -102
-198 -292 -419 -533 -688 -748 -233 -187 -544 -369 -825 -485 -244 -100 -583
-190 -810 -216 -25 -3 -56 -7 -69 -9 -143 -24 -615 -25 -761 -1 -14 2 -50 7
-80 11 -30 4 -67 9 -81 11 -156 21 -573 137 -694 194 -11 5 -49 21 -85 36
-333 136 -727 399 -1005 671 -581 566 -948 1347 -1003 2133 -12 180 -4 600 12
652 3 7 7 37 11 67 3 30 8 64 10 75 2 12 7 37 9 56 8 51 55 257 73 315 76 248
133 396 222 575 246 493 594 905 1036 1227 413 300 955 522 1450 593 44 6 90
13 101 15 12 2 61 6 110 10 49 4 90 9 92 10 5 5 473 -4 506 -9z"/>
<path d="M3431 6743 c-118 -30 -199 -123 -215 -246 -4 -27 -2 -83 3 -125 9
-73 13 -100 26 -217 16 -142 25 -164 73 -189 58 -30 134 4 150 68 5 17 2 73
-4 126 -7 52 -15 120 -18 150 -19 182 -19 174 1 198 26 32 65 36 98 10 27 -21
28 -23 21 -102 -8 -105 -15 -176 -21 -201 -2 -11 -7 -54 -11 -96 -5 -61 -3
-82 11 -108 30 -59 114 -73 163 -28 26 24 39 66 47 162 4 38 9 78 11 88 9 50
19 169 19 237 -1 61 -6 84 -27 125 -40 76 -115 136 -188 150 -66 12 -87 12
-139 -2z"/>
<path d="M3219 6706 c-2 -2 -35 -6 -74 -10 -38 -3 -79 -7 -90 -10 -11 -2 -42
-7 -70 -10 -326 -44 -783 -206 -1095 -389 -164 -96 -460 -307 -460 -327 0 -4
20 -11 45 -14 49 -8 127 -46 165 -81 l25 -23 116 82 c65 44 148 100 185 124
105 65 355 185 489 235 100 37 282 93 328 101 6 1 21 5 32 9 11 3 31 8 45 11
14 2 63 11 110 20 85 15 135 24 156 25 6 1 16 32 23 71 11 67 35 125 69 163
13 14 14 35 1 23z"/>
<path d="M3770 6703 c0 -4 8 -16 18 -27 27 -31 60 -114 68 -174 3 -29 12 -52
18 -53 57 -4 237 -39 361 -70 410 -102 802 -299 1137 -571 54 -43 98 -83 98
-88 0 -5 -12 -5 -27 -1 -32 9 -156 7 -223 -3 -25 -4 -76 -18 -113 -31 -247
-85 -435 -319 -463 -578 -4 -34 -7 -326 -7 -649 0 -461 -3 -588 -13 -588 -7 0
-14 4 -16 8 -6 15 -113 89 -186 128 -84 45 -81 28 -36 224 8 36 17 80 20 99 3
19 9 44 14 55 4 12 8 24 8 29 0 7 14 87 17 97 1 3 5 23 9 45 4 22 12 54 17 70
4 17 11 46 14 65 3 19 8 42 10 50 2 8 6 26 9 40 2 14 16 78 30 143 39 171 37
279 -7 382 -63 151 -171 252 -327 305 -57 20 -88 23 -245 24 -281 3 -382 -26
-507 -142 -147 -138 -191 -305 -141 -537 13 -60 28 -130 33 -155 5 -25 12 -56
15 -70 3 -14 7 -36 10 -50 10 -53 14 -72 19 -88 3 -9 7 -28 10 -42 2 -14 9
-45 15 -70 5 -25 12 -58 15 -75 8 -43 46 -217 52 -235 5 -13 4 -13 -9 0 -12
13 -186 280 -267 410 -216 347 -285 431 -400 486 -77 38 -176 61 -245 58 -62
-3 -164 -24 -171 -35 -3 -5 -12 -9 -20 -9 -53 0 -333 -256 -406 -370 -122
-190 -102 -447 49 -619 49 -56 84 -80 653 -446 129 -83 205 -136 174 -121 -6
3 -25 8 -42 11 -40 7 -399 83 -642 136 -102 23 -216 42 -255 43 -228 7 -439
-146 -507 -368 -19 -63 -21 -94 -21 -276 1 -194 2 -209 27 -279 75 -218 273
-357 501 -353 35 1 263 45 549 107 268 58 494 105 502 105 7 0 23 -21 35 -47
18 -40 84 -148 99 -163 3 -3 17 -21 32 -41 l26 -35 -601 -1 c-331 0 -624 -3
-652 -6 -286 -37 -519 -250 -595 -545 -14 -54 -20 -204 -10 -248 4 -19 4 -34
0 -34 -11 0 -120 133 -199 242 -217 300 -402 711 -476 1058 -2 8 -8 36 -14 63
-6 26 -14 64 -16 85 -3 20 -8 49 -11 64 -3 15 -7 41 -9 59 -4 32 -22 52 -37
43 -15 -9 -127 25 -170 52 -38 24 -56 29 -52 14 1 -3 5 -36 9 -75 24 -248 96
-538 200 -805 322 -827 969 -1480 1796 -1815 184 -75 476 -158 629 -180 24 -4
47 -8 50 -10 3 -2 37 -6 75 -10 39 -4 72 -9 75 -10 15 -9 198 -19 355 -19 162
0 297 6 395 19 173 22 276 42 425 80 771 201 1432 671 1872 1330 228 340 407
773 478 1150 50 267 60 376 60 640 -1 261 -14 402 -61 635 -76 381 -249 802
-457 1115 -55 84 -155 224 -167 235 -3 3 -39 46 -80 95 -72 87 -237 257 -310
320 -296 256 -588 438 -921 573 -175 70 -406 143 -534 167 -178 33 -253 45
-316 50 -41 4 -80 8 -86 10 -7 3 -13 1 -13 -2z m1710 -1170 c142 -37 283 -153
345 -284 55 -117 60 -166 59 -514 -1 -170 -2 -317 -3 -327 -1 -11 -17 -20 -53
-28 -184 -44 -339 -205 -378 -394 -9 -44 -12 -246 -12 -770 1 -492 -2 -720
-10 -739 -18 -48 -52 -57 -203 -57 l-135 0 2 1348 c3 1327 3 1348 23 1381 36
61 88 94 155 99 151 11 245 -118 195 -270 -23 -73 -78 -180 -127 -250 -50 -71
-54 -110 -14 -145 54 -46 97 -26 165 77 54 82 106 189 135 277 58 177 -19 360
-185 442 -207 102 -462 -28 -505 -255 -4 -22 -8 -687 -8 -1479 l-1 -1440 -24
-38 c-13 -21 -42 -50 -64 -65 l-41 -27 -1261 -1 c-1386 -2 -1317 1 -1425 -62
-183 -106 -262 -355 -172 -545 77 -165 222 -255 413 -257 l46 0 -1 -48 -1 -48
-240 1 c-246 1 -303 8 -393 46 -91 39 -181 117 -237 204 -138 217 -109 489 73
672 79 80 142 116 247 143 75 19 118 20 1340 20 1239 0 1265 1 1329 20 96 30
180 98 231 185 57 98 55 39 55 1394 0 685 3 1262 6 1281 34 225 191 400 409
456 65 16 195 15 265 -3z m-1347 -101 c97 -27 182 -105 217 -199 32 -85 28
-127 -35 -423 -95 -441 -137 -636 -140 -638 -1 -1 -2 197 -2 440 0 431 0 444
-21 491 -87 197 -359 203 -453 9 -23 -47 -23 -47 -24 -494 0 -245 -2 -444 -5
-441 -3 2 -5 8 -5 11 -1 11 -14 75 -40 192 -9 41 -19 86 -21 100 -3 14 -30
140 -61 280 -77 358 -77 358 -57 437 32 123 121 209 248 238 60 14 347 12 399
-3z m-168 -392 c17 -18 18 -48 17 -437 0 -230 -1 -431 -1 -446 -1 -28 -2 -28
-58 -25 l-57 3 -1 430 c0 237 3 441 8 455 15 44 61 54 92 20z m2109 -53 c128
-220 232 -474 300 -729 14 -54 26 -100 26 -103 0 -3 -19 18 -43 47 -45 55
-124 122 -167 140 -14 6 -52 20 -85 32 l-60 21 0 313 c0 171 2 312 5 312 3 0
13 -15 24 -33z m-3392 -77 c77 -28 122 -71 193 -179 312 -477 453 -702 420
-671 -20 19 -163 161 -318 315 -209 208 -292 285 -322 296 -204 77 -398 -106
-330 -312 17 -49 42 -78 299 -336 155 -155 297 -298 316 -318 32 -33 -59 22
-440 270 -19 13 -100 65 -180 117 -158 102 -199 143 -231 228 -28 74 -23 184
11 254 24 50 210 248 280 298 84 60 203 75 302 38z m218 -730 c170 -170 310
-313 310 -318 0 -4 -17 -24 -37 -44 l-38 -37 -312 313 c-326 325 -334 336
-296 378 37 41 50 30 373 -292z m3171 35 c106 -38 186 -124 221 -238 17 -56
22 -97 22 -187 0 -130 -18 -216 -67 -320 l-31 -65 -6 125 c-8 159 -28 204
-119 257 -61 37 -141 40 -207 9 -59 -28 -86 -56 -113 -116 -20 -44 -21 -63
-21 -685 0 -670 -1 -690 -45 -775 -65 -127 -196 -207 -345 -210 -30 -1 -104
-1 -163 -1 l-108 1 3 122 3 122 145 1 c164 2 204 11 268 62 46 38 76 88 87
146 4 21 8 367 9 770 l1 732 27 57 c79 168 270 252 439 193z m-1993 -344 c17
-5 32 -8 32 -6 0 7 134 -42 180 -65 118 -59 261 -190 319 -293 l28 -47 -2
-453 c-1 -335 -4 -460 -14 -482 -24 -58 -62 -103 -114 -131 l-52 -29 -455 -1
-455 -1 -50 26 c-64 33 -220 189 -264 263 -144 246 -156 540 -31 788 112 223
317 379 565 430 86 18 255 19 313 1z m1948 -242 c18 -20 19 -39 19 -269 0
-263 0 -261 50 -287 38 -21 74 -3 127 61 107 128 178 258 223 406 l25 85 -4
-210 c-3 -115 -7 -221 -9 -235 -3 -14 -8 -50 -12 -80 -4 -30 -8 -62 -10 -70
-2 -8 -6 -35 -10 -60 -3 -25 -11 -63 -17 -85 -5 -22 -12 -51 -15 -65 -23 -134
-122 -415 -213 -606 -87 -181 -228 -410 -339 -547 -167 -208 -394 -429 -569
-554 l-42 -31 -1113 0 c-950 0 -1116 2 -1140 15 -36 18 -61 75 -52 119 7 42
56 84 98 85 18 0 361 2 762 3 815 3 775 0 931 76 150 73 279 220 335 383 l28
81 178 2 c199 2 267 14 362 65 150 79 261 236 286 400 4 24 7 325 7 669 0 692
-2 670 62 670 21 0 40 -8 52 -21z m-3917 -145 c91 -19 175 -37 186 -40 11 -2
31 -6 45 -9 14 -3 34 -7 45 -10 201 -42 430 -93 425 -95 -3 -1 -201 -3 -440
-4 -432 -2 -435 -2 -482 -25 -163 -79 -192 -304 -55 -415 72 -58 81 -59 539
-59 230 0 418 -3 418 -7 0 -4 -24 -12 -52 -18 -29 -6 -147 -31 -263 -56 -508
-109 -550 -117 -612 -115 -146 5 -274 117 -300 265 -10 56 -9 322 1 372 16 79
81 168 158 215 41 25 127 45 177 41 24 -2 118 -20 210 -40z m749 -353 c8 -1
12 -19 12 -56 l0 -55 -444 0 c-244 0 -452 3 -461 6 -41 16 -37 86 5 102 15 5
835 8 888 3z m-31 -307 c-3 -3 -12 -4 -19 -1 -8 3 -5 6 6 6 11 1 17 -2 13 -5z
m2091 -925 c-21 -113 -84 -227 -166 -299 -58 -51 -165 -105 -234 -119 -35 -8
-310 -12 -803 -14 l-750 -2 -46 -23 c-182 -91 -216 -316 -68 -454 81 -75 32
-71 1082 -72 515 0 937 -1 937 -2 0 -16 -444 -133 -603 -159 -18 -3 -57 -10
-87 -15 -30 -5 -71 -12 -90 -14 -19 -3 -51 -7 -70 -10 -32 -4 -72 -8 -225 -21
-63 -6 -415 -6 -475 0 -70 6 -162 16 -197 21 -18 2 -50 6 -70 9 -184 25 -295
69 -369 145 -88 91 -128 192 -123 313 8 189 133 343 317 392 35 9 230 12 758
12 794 1 772 -1 877 70 84 58 133 126 170 236 5 13 18 17 54 18 26 1 51 1 54
1 10 -2 108 34 115 41 16 16 21 -7 12 -54z m-408 -3 c0 -12 -28 -53 -56 -83
-6 -7 -31 -22 -55 -35 l-44 -23 -745 -5 -745 -5 -70 -25 c-141 -49 -273 -163
-336 -288 -13 -26 -27 -50 -32 -53 -4 -3 -41 -5 -81 -3 -170 6 -278 108 -279
264 -1 115 62 209 168 249 48 19 88 20 1163 20 937 1 1112 -1 1112 -13z
m-2049 -996 c64 -117 143 -196 254 -255 56 -29 49 -28 -80 11 -183 55 -374
135 -555 232 -103 56 -104 57 -70 62 19 3 122 5 228 4 l194 -1 29 -53z"/>
<path d="M3811 3604 c-204 -43 -382 -222 -418 -422 -8 -47 -9 -145 -1 -197 31
-200 192 -376 393 -430 70 -19 204 -21 265 -5 346 93 514 470 349 781 -72 135
-204 237 -349 270 -72 17 -170 18 -239 3z m212 -250 c65 -22 139 -91 167 -155
72 -170 -13 -355 -189 -405 -184 -54 -371 86 -373 278 -2 207 198 349 395 282z"/>
<path d="M3853 3240 c-105 -48 -140 -172 -75 -264 99 -141 322 -73 322 98 0
130 -132 218 -247 166z"/>
<path d="M1323 5880 c-17 -4 -52 -19 -77 -34 -158 -92 -182 -323 -48 -450 26
-25 116 -99 200 -165 136 -107 158 -121 192 -121 80 0 133 86 96 154 -10 17
-83 83 -163 146 -174 137 -193 155 -193 181 0 51 48 87 94 69 14 -5 80 -78
147 -162 149 -186 162 -198 212 -198 31 0 46 7 73 34 36 36 44 78 23 119 -24
44 -279 356 -313 382 -62 47 -159 65 -243 45z"/>
<path d="M979 5500 c-213 -275 -360 -530 -477 -830 -97 -247 -179 -585 -198
-815 -3 -33 -7 -66 -9 -72 -6 -18 -1 -17 47 16 24 16 67 36 96 44 59 18 54 17
87 17 20 0 25 6 30 38 79 517 258 965 535 1341 l69 94 -28 32 c-38 44 -71 115
-79 172 l-7 48 -66 -85z"/>
<path d="M450 3773 c-60 -20 -118 -64 -152 -115 -96 -142 -46 -335 106 -412
64 -33 119 -38 256 -22 78 8 83 9 190 20 135 15 158 24 185 76 25 48 2 115
-47 141 -24 13 -127 7 -303 -17 -22 -3 -72 -8 -111 -11 -69 -5 -72 -4 -93 23
-24 31 -22 65 7 98 15 16 27 17 92 12 41 -4 89 -8 105 -11 57 -9 110 -14 200
-21 82 -6 92 -4 117 15 39 31 53 80 34 124 -18 45 -49 65 -111 72 -27 3 -63 7
-80 9 -16 2 -59 7 -95 11 -36 3 -78 9 -95 11 -76 13 -162 11 -205 -3z"/>
</g>
</svg>
